<?xml version="1.0" standalone="no"?>
<!DOCTYPE svg PUBLIC "-//W3C//DTD SVG 20010904//EN"
 "http://www.w3.org/TR/2001/REC-SVG-20010904/DTD/svg10.dtd">
<svg version="1.0" xmlns="http://www.w3.org/2000/svg"
 width="512.000000pt" height="512.000000pt" viewBox="0 0 512.000000 512.000000"
 preserveAspectRatio="xMidYMid meet">
<metadata>
Created by potrace 1.11, written by Peter Selinger 2001-2013
</metadata>
<g transform="translate(0.000000,512.000000) scale(0.100000,-0.100000)"
fill="#000000" stroke="none">
<path d="M2500 3412 c-2299 -1009 -2456 -1079 -2478 -1112 -46 -67 -9 -164 72
-189 17 -5 269 -67 561 -137 292 -70 535 -132 541 -138 7 -6 125 -254 264
-551 139 -297 263 -559 276 -582 41 -70 116 -93 179 -54 17 10 210 177 430
371 220 194 408 359 417 367 15 14 60 1 435 -122 230 -76 434 -138 454 -139
43 -1 83 18 104 50 32 50 1365 3157 1365 3183 0 40 -26 97 -52 115 -59 42 43
84 -2568 -1062z m1619 -763 c-292 -679 -533 -1236 -536 -1238 -7 -8 -1252 404
-1250 413 3 10 2310 2064 2315 2061 1 -1 -236 -558 -529 -1236z m-524 957
c-11 -7 -540 -352 -1175 -766 l-1155 -752 -368 88 c-241 58 -364 92 -355 98
20 12 3051 1344 3063 1345 5 1 1 -5 -10 -13z m-5 -319 c-19 -18 -391 -349
-827 -736 -683 -606 -794 -709 -808 -745 -8 -22 -44 -178 -81 -346 -36 -168
-67 -306 -68 -307 -2 -2 -82 167 -179 374 -129 275 -174 379 -164 385 6 4 494
322 1082 707 589 385 1072 700 1075 700 3 0 -11 -14 -30 -32z m-1259 -1738
c88 -28 159 -55 157 -59 -4 -10 -422 -379 -426 -376 -4 4 101 486 106 486 2 0
76 -23 163 -51z"/>
</g>
</svg>
